# xmcd
#
# Track frame offsets:
#	150
#	12003
#	29005
#	43630
#	58996
#	74644
#	90657
#	105309
#	125547
#	138641
#	155865
#	174252
#	188624
#	204124
#	231308
#
# Disc length: 3113 seconds
#
# Revision: 1
# Processed by: cddbd v1.5.2PL0 Copyright (c) Steve Scherf et al.
# Submitted via: EasyCDDAExtractor 12.0.1.1
#
DISCID=d00c270f
DTITLE=Martina Mcbride - Playlist
DYEAR=2008
DGENRE=Country
TTITLE0=My Baby Loves Me
TTITLE1=Wild Angels
TTITLE2=Safe In The Arms Of Love
TTITLE3=There You Are (Remix)
TTITLE4=Happy Girl
TTITLE5=It's My Time
TTITLE6=Wrong Again (Acoustic)
TTITLE7=Show Me
TTITLE8=I Love You (Pop Remix)
TTITLE9=How I Feel
TTITLE10=This One's For The Girls (Remix)
TTITLE11=Cryin' Time
TTITLE12=Indepedence Day
TTITLE13=God Bless America
TTITLE14=Data
EXTD=
EXTT0=
EXTT1=
EXTT2=
EXTT3=
EXTT4=
EXTT5=
EXTT6=
EXTT7=
EXTT8=
EXTT9=
EXTT10=
EXTT11=
EXTT12=
EXTT13=
EXTT14=
PLAYORDER=
